#N canvas 1123 472 823 540 12;
#X obj 151 73 inlet fc;
#X obj 537 79 inlet Q;
#X obj 382 29 loadbang;
#X obj 382 54 bng 15 250 50 0 empty empty empty 17 7 0 10 #fcfcfc #000000 #000000;
#X obj 373 82 samplerate~;
#X floatatom 373 105 5 0 0 0 - - - 0;
#N canvas 1353 -486 701 421 AllPass 0;
#X obj 89 35 inlet K;
#X floatatom 112 186 5 0 0 0 - - - 0;
#X floatatom 196 186 5 0 0 0 - - - 0;
#X floatatom 246 178 5 0 0 0 - - - 0;
#X floatatom 284 180 5 0 0 0 - - - 0;
#X floatatom 310 59 5 0 0 0 - - - 0;
#X floatatom 107 62 5 0 0 0 - - - 0;
#X floatatom 406 166 5 0 0 0 - - - 0;
#X obj 54 87 expr (pow($f1 \, 2)*$f2-$f1+$f2)/(pow($f1 \, 2)*$f2+$f1+$f2) \; 2*$f2*(pow($f1 \, 2)-1)/(pow($f1 \, 2)*$f2+$f1+$f2) \; 1 \; 2*$f2*(pow($f1 \, 2)-1)/(pow($f1 \, 2)*$f2+$f1+$f2) \; (pow($f1 \, 2)*$f2-$f1+$f2)/(pow($f1 \, 2)*$f2+$f1+$f2);
#X obj 67 240 outlet b0;
#X obj 154 239 outlet b1;
#X obj 227 234 outlet b2;
#X obj 302 231 outlet a1, f 10;
#X obj 380 229 outlet a2;
#X obj 313 30 inlet Q;
#X connect 0 0 6 0;
#X connect 0 0 8 0;
#X connect 8 0 1 0;
#X connect 8 0 9 0;
#X connect 8 1 2 0;
#X connect 8 1 10 0;
#X connect 8 2 3 0;
#X connect 8 2 11 0;
#X connect 8 3 4 0;
#X connect 8 3 12 0;
#X connect 8 4 7 0;
#X connect 8 4 13 0;
#X connect 14 0 5 0;
#X connect 14 0 8 1;
#X restore 219 194 pd AllPass;
#X f 26;
#X obj 65 255 fexpr~ $x1[0]*$f2+$x1[-1]*$f3+$x1[-2]*$f4-$y1[-1]*$f5-$y1[-2]*$f6;
#X obj 56 70 inlet~ audio;
#X obj 65 304 outlet~;
#X msg 336 90 20;
#X msg 222 117 880;
#X obj 464 111 v pi;
#X msg 464 80 3.14159;
#X obj 217 165 expr tan(pi*$f1/$f2);
#X text 379 169 K;
#X connect 0 0 14 0;
#X connect 1 0 6 1;
#X connect 2 0 3 0;
#X connect 3 0 4 0;
#X connect 3 0 10 0;
#X connect 3 0 11 0;
#X connect 3 0 13 0;
#X connect 4 0 5 0;
#X connect 5 0 14 1;
#X connect 6 0 7 1;
#X connect 6 1 7 2;
#X connect 6 2 7 3;
#X connect 6 3 7 4;
#X connect 6 4 7 5;
#X connect 7 0 9 0;
#X connect 8 0 7 0;
#X connect 10 0 6 1;
#X connect 11 0 14 0;
#X connect 13 0 12 0;
#X connect 14 0 6 0;
