#N canvas 220 715 1180 418 10;
#X obj 425 -56 key;
#X obj 425 -30 t b b f b;
#X msg 510 30 add2 \$1;
#X msg 447 26 add2 \$1;
#X msg 568 29 set;
#X obj 406 34 bng 15 250 50 0 empty empty empty 17 7 0 10 #fcfcfc #000000 #000000;
#X msg 478 64 0 42;
#X obj -31 158 + 0;
#X obj -6 158 + 1;
#X obj 20 158 + 2;
#X obj 45 158 + 3;
#X obj 70 158 + 4;
#X obj 95 158 + 5;
#X obj 121 158 + 6;
#X obj 146 158 + 7;
#X obj 172 158 + 8;
#X obj 197 158 + 9;
#X obj 223 158 + 10;
#X obj 254 158 + 11;
#X obj 285 158 + 12;
#X obj 316 158 + 13;
#X obj 348 158 + 14;
#X obj 379 158 + 15;
#X obj 410 158 + 16;
#X obj 441 158 + 17;
#X obj 472 158 + 18;
#X obj 503 158 + 19;
#X obj 534 158 + 12;
#X obj 566 158 + 13;
#X obj 597 158 + 14;
#X obj 628 158 + 15;
#X obj 659 158 + 16;
#X obj 690 158 + 17;
#X obj 721 158 + 18;
#X obj 752 158 + 19;
#X obj 784 158 + 20;
#X obj 815 158 + 21;
#X obj 846 158 + 22;
#X obj 877 158 + 23;
#X obj 908 158 + 24;
#X obj 939 158 + 25;
#X obj 970 158 + 26;
#X obj 1001 158 + 27;
#X obj 1032 158 + 28;
#X obj 1063 158 + 29;
#X obj 412 83 route 113 50 119 51 101 114 53 116 54 121 55 117 105 57 111 48 112 91 61 93 81 64 87 35 69 82 37 84 94 89 38 85 73 40 79 41 80 95 43;
#X obj 1095 158 + 30;
#X obj 563 246 outlet;
#X obj 332 85 s veloIN;
#X msg 339 63 100;
#X obj 583 -58 keyname;
#X obj 583 -30 s k_release;
#X text 477 0 change here for lowest freq;
#X msg 447 2 42;
#X connect 0 0 1 0;
#X connect 1 0 5 0;
#X connect 1 1 53 0;
#X connect 1 2 2 0;
#X connect 1 3 4 0;
#X connect 2 0 6 0;
#X connect 3 0 6 0;
#X connect 4 0 6 0;
#X connect 5 0 6 0;
#X connect 5 0 49 0;
#X connect 6 0 45 0;
#X connect 7 0 47 0;
#X connect 8 0 47 0;
#X connect 9 0 47 0;
#X connect 10 0 47 0;
#X connect 11 0 47 0;
#X connect 12 0 47 0;
#X connect 13 0 47 0;
#X connect 14 0 47 0;
#X connect 15 0 47 0;
#X connect 16 0 47 0;
#X connect 17 0 47 0;
#X connect 18 0 47 0;
#X connect 19 0 47 0;
#X connect 20 0 47 0;
#X connect 21 0 47 0;
#X connect 22 0 47 0;
#X connect 23 0 47 0;
#X connect 24 0 47 0;
#X connect 25 0 47 0;
#X connect 26 0 47 0;
#X connect 27 0 47 0;
#X connect 28 0 47 0;
#X connect 29 0 47 0;
#X connect 30 0 47 0;
#X connect 31 0 47 0;
#X connect 32 0 47 0;
#X connect 33 0 47 0;
#X connect 34 0 47 0;
#X connect 35 0 47 0;
#X connect 36 0 47 0;
#X connect 37 0 47 0;
#X connect 38 0 47 0;
#X connect 39 0 47 0;
#X connect 40 0 47 0;
#X connect 41 0 47 0;
#X connect 42 0 47 0;
#X connect 43 0 47 0;
#X connect 44 0 47 0;
#X connect 45 0 7 0;
#X connect 45 1 8 0;
#X connect 45 2 9 0;
#X connect 45 3 10 0;
#X connect 45 4 11 0;
#X connect 45 5 12 0;
#X connect 45 6 13 0;
#X connect 45 7 14 0;
#X connect 45 8 15 0;
#X connect 45 9 16 0;
#X connect 45 10 17 0;
#X connect 45 11 18 0;
#X connect 45 12 19 0;
#X connect 45 13 20 0;
#X connect 45 14 21 0;
#X connect 45 15 22 0;
#X connect 45 16 23 0;
#X connect 45 17 24 0;
#X connect 45 18 25 0;
#X connect 45 19 26 0;
#X connect 45 20 27 0;
#X connect 45 21 28 0;
#X connect 45 22 29 0;
#X connect 45 23 30 0;
#X connect 45 24 31 0;
#X connect 45 25 32 0;
#X connect 45 26 33 0;
#X connect 45 27 34 0;
#X connect 45 28 35 0;
#X connect 45 29 36 0;
#X connect 45 30 37 0;
#X connect 45 31 38 0;
#X connect 45 32 39 0;
#X connect 45 33 40 0;
#X connect 45 34 41 0;
#X connect 45 35 42 0;
#X connect 45 36 43 0;
#X connect 45 37 44 0;
#X connect 45 38 46 0;
#X connect 46 0 47 0;
#X connect 49 0 48 0;
#X connect 50 0 51 0;
#X connect 53 0 3 0;
