#N canvas 218 23 794 812 12;
#X obj 176 329 bng 20 250 50 0 empty empty empty 17 7 0 10 -262144
-1 -1;
#X obj 176 350 bng 20 250 50 0 empty empty empty 17 7 0 10 -262144
-1 -1;
#X obj 176 371 bng 20 250 50 0 empty empty empty 17 7 0 10 -262144
-1 -1;
#X obj 197 329 bng 20 250 50 0 empty empty empty 17 7 0 10 -262144
-1 -1;
#X obj 197 350 bng 20 250 50 0 empty empty empty 17 7 0 10 -262144
-1 -1;
#X obj 197 371 bng 20 250 50 0 empty empty empty 17 7 0 10 -262144
-1 -1;
#X obj 218 329 bng 20 250 50 0 empty empty empty 17 7 0 10 -262144
-1 -1;
#X obj 218 350 bng 20 250 50 0 empty empty empty 17 7 0 10 -262144
-1 -1;
#X obj 218 371 bng 20 250 50 0 empty empty empty 17 7 0 10 -262144
-1 -1;
#X obj 37 594 send \$0-color;
#X obj 37 503 del 250;
#X obj 28 70 del 250;
#X obj 239 329 bng 20 250 50 0 empty empty empty 17 7 0 10 -262144
-1 -1;
#X obj 239 350 bng 20 250 50 0 empty empty empty 17 7 0 10 -262144
-1 -1;
#X obj 239 371 bng 20 250 50 0 empty empty empty 17 7 0 10 -262144
-1 -1;
#X obj 260 329 bng 20 250 50 0 empty empty empty 17 7 0 10 -262144
-1 -1;
#X obj 260 350 bng 20 250 50 0 empty empty empty 17 7 0 10 -262144
-1 -1;
#X obj 260 371 bng 20 250 50 0 empty empty empty 17 7 0 10 -262144
-1 -1;
#X obj 281 329 bng 20 250 50 0 empty empty empty 17 7 0 10 -262144
-1 -1;
#X obj 281 350 bng 20 250 50 0 empty empty empty 17 7 0 10 -262144
-1 -1;
#X obj 281 371 bng 20 250 50 0 empty empty empty 17 7 0 10 -262144
-1 -1;
#X obj 302 329 bng 20 250 50 0 empty empty empty 17 7 0 10 -262144
-1 -1;
#X obj 302 350 bng 20 250 50 0 empty empty empty 17 7 0 10 -262144
-1 -1;
#X obj 302 371 bng 20 250 50 0 empty empty empty 17 7 0 10 -262144
-1 -1;
#X obj 323 329 bng 20 250 50 0 empty empty empty 17 7 0 10 -262144
-1 -1;
#X obj 323 350 bng 20 250 50 0 empty empty empty 17 7 0 10 -262144
-1 -1;
#X obj 323 371 bng 20 250 50 0 empty empty empty 17 7 0 10 -262144
-1 -1;
#X obj 185 266 bng 20 250 50 0 empty empty empty 17 7 0 10 -262144
-1 -1;
#X obj 185 287 bng 20 250 50 0 empty empty empty 17 7 0 10 -262144
-1 -1;
#X obj 185 308 bng 20 250 50 0 empty empty empty 17 7 0 10 -262144
-1 -1;
#X obj 208 266 bng 20 250 50 0 empty empty empty 17 7 0 10 -262144
-1 -1;
#X obj 208 287 bng 20 250 50 0 empty empty empty 17 7 0 10 -262144
-1 -1;
#X obj 208 308 bng 20 250 50 0 empty empty empty 17 7 0 10 -262144
-1 -1;
#X obj 247 266 bng 20 250 50 0 empty empty empty 17 7 0 10 -262144
-1 -1;
#X obj 247 287 bng 20 250 50 0 empty empty empty 17 7 0 10 -262144
-1 -1;
#X obj 247 308 bng 20 250 50 0 empty empty empty 17 7 0 10 -262144
-1 -1;
#X obj 270 266 bng 20 250 50 0 empty empty empty 17 7 0 10 -262144
-1 -1;
#X obj 270 287 bng 20 250 50 0 empty empty empty 17 7 0 10 -262144
-1 -1;
#X obj 270 308 bng 20 250 50 0 empty empty empty 17 7 0 10 -262144
-1 -1;
#X obj 293 266 bng 20 250 50 0 empty empty empty 17 7 0 10 -262144
-1 -1;
#X obj 293 287 bng 20 250 50 0 empty empty empty 17 7 0 10 -262144
-1 -1;
#X obj 293 308 bng 20 250 50 0 empty empty empty 17 7 0 10 -262144
-1 -1;
#X obj 142 503 del 250;
#X obj 142 594 send \$1-color;
#X obj 247 503 del 250;
#X obj 352 503 del 250;
#X obj 37 632 del 250;
#X obj 140 632 del 250;
#X obj 247 632 del 250;
#X obj 352 632 del 250;
#X obj 247 594 send \$2-color;
#X obj 352 594 send \$3-color;
#X obj 37 723 send \$4-color;
#X obj 140 723 send \$5-color;
#X obj 247 723 send \$6-color;
#X obj 352 723 send \$7-color;
#X obj 133 70 del 250;
#X obj 238 70 del 250;
#X obj 350 70 del 250;
#X obj 462 70 del 250;
#X obj 28 160 send \$8-color;
#X obj 133 160 send \$9-color;
#X obj 238 160 send \$10-color;
#X obj 350 160 send \$11-color;
#X obj 462 160 send \$12-color;
#X floatatom 361 374 10 0 0 2 note - -;
#X obj 361 339 hradio 15 1 0 5 empty empty transpose 0 -8 0 12 -195904
-1 -1 3;
#X obj 583 276 sel 0 1 2 3 4, f 25;
#X msg 505 331 60;
#X msg 515 351 62;
#X msg 525 371 64;
#X msg 555 371 65;
#X obj 644 350 +;
#X msg 720 298 24;
#X msg 686 298 12;
#X msg 617 298 -12;
#X msg 583 299 -24;
#X msg 651 298 0;
#X msg 565 391 67;
#X msg 575 411 69;
#X msg 555 431 71;
#X msg 615 431 72;
#X obj 208 266 cnv 15 19 61 empty \$9-color empty 20 12 0 14 -29128
-29128 0;
#X obj 185 266 cnv 15 19 61 empty \$8-color empty 20 12 0 14 -29128
-29128 0;
#X msg 545 331 61;
#X msg 555 351 63;
#X obj 270 266 cnv 15 19 61 empty \$11-color empty 20 12 0 14 -29128
-29128 0;
#X obj 247 266 cnv 15 19 61 empty \$10-color empty 20 12 0 14 -29128
-29128 0;
#X obj 293 266 cnv 15 19 61 empty \$12-color empty 20 12 0 14 -29128
-29128 0;
#X obj 176 329 cnv 15 19 61 empty \$0-color empty 20 12 0 14 -262077
-262144 0;
#X obj 197 329 cnv 15 19 61 empty \$1-color empty 20 12 0 14 -262077
-262144 0;
#X obj 218 329 cnv 15 19 61 empty \$2-color empty 20 12 0 14 -262077
-262144 0;
#X obj 239 329 cnv 15 19 61 empty \$3-color empty 20 12 0 14 -262077
-262077 0;
#X obj 260 329 cnv 15 19 61 empty \$4-color empty 20 12 0 14 -262077
-262077 0;
#X obj 281 329 cnv 15 19 61 empty \$5-color empty 20 12 0 14 -262077
-262077 0;
#X obj 302 329 cnv 15 19 61 empty \$6-color empty 20 12 0 14 -262077
-262077 0;
#X obj 323 329 cnv 15 19 61 empty \$7-color empty 20 12 0 14 -262077
-262077 0;
#X obj 505 189 loadbang;
#X msg 505 209 2;
#X obj 644 373 spigot;
#X obj 644 396 mtof;
#X obj 361 302 tgl 15 0 empty empty midi/freq 17 7 0 12 -237242 -1
-1 1 1;
#X obj 350 250 cnv 15 92 30 empty empty MONO-MIDI 10 15 2 16 -262144
-25032 0;
#X obj 350 271 cnv 15 92 25 empty empty KEYBOARD 10 12 2 16 -262144
-29128 0;
#X msg 535 391 66;
#X msg 545 411 68;
#X msg 585 431 70;
#X obj 361 433 t f b, f 13;
#X obj 449 457 outlet bang;
#X obj 361 457 outlet note;
#X text 159 392 ↓ note out;
#X text 416 391 bang ↓;
#X msg 37 527 list #FFFBF0;
#X msg 37 572 color \$1;
#X msg 46 549 list #FFD05A;
#X msg 142 527 list #FFFBF0;
#X msg 247 527 list #FFFBF0;
#X msg 352 527 list #FFFBF0;
#X msg 37 656 list #FFFBF0;
#X msg 140 656 list #FFFBF0;
#X msg 247 656 list #FFFBF0;
#X msg 352 656 list #FFFBF0;
#X msg 151 549 list #FFD05A;
#X msg 256 549 list #FFD05A;
#X msg 361 549 list #FFD05A;
#X msg 361 678 list #FFD05A;
#X msg 256 678 list #FFD05A;
#X msg 149 678 list #FFD05A;
#X msg 46 678 list #FFD05A;
#X msg 142 572 color \$1;
#X msg 247 572 color \$1;
#X msg 352 572 color \$1;
#X msg 352 701 color \$1;
#X msg 247 701 color \$1;
#X msg 140 701 color \$1;
#X msg 37 701 color \$1;
#X msg 28 92 list #1D1E1E;
#X msg 133 92 list #1D1E1E;
#X msg 238 92 list #1D1E1E;
#X msg 350 92 list #1D1E1E;
#X msg 462 92 list #1D1E1E;
#X msg 39 115 list #FFD05A;
#X msg 144 115 list #FFD05A;
#X msg 249 115 list #FFD05A;
#X msg 361 115 list #FFD05A;
#X msg 473 115 list #FFD05A;
#X msg 28 138 color \$1;
#X msg 133 138 color \$1;
#X msg 238 138 color \$1;
#X msg 350 138 color \$1;
#X msg 462 138 color \$1;
#X text 37 781 _____________________________________________________________________
, f 78;
#X connect 0 0 10 0;
#X connect 0 0 114 0;
#X connect 0 0 68 0;
#X connect 1 0 10 0;
#X connect 1 0 114 0;
#X connect 1 0 68 0;
#X connect 2 0 114 0;
#X connect 2 0 10 0;
#X connect 2 0 68 0;
#X connect 3 0 42 0;
#X connect 3 0 69 0;
#X connect 3 0 122 0;
#X connect 4 0 42 0;
#X connect 4 0 69 0;
#X connect 4 0 122 0;
#X connect 5 0 42 0;
#X connect 5 0 69 0;
#X connect 5 0 122 0;
#X connect 6 0 44 0;
#X connect 6 0 123 0;
#X connect 6 0 70 0;
#X connect 7 0 44 0;
#X connect 7 0 123 0;
#X connect 7 0 70 0;
#X connect 8 0 44 0;
#X connect 8 0 123 0;
#X connect 8 0 70 0;
#X connect 10 0 112 0;
#X connect 11 0 136 0;
#X connect 12 0 45 0;
#X connect 12 0 124 0;
#X connect 12 0 71 0;
#X connect 13 0 45 0;
#X connect 13 0 124 0;
#X connect 13 0 71 0;
#X connect 14 0 45 0;
#X connect 14 0 124 0;
#X connect 14 0 71 0;
#X connect 15 0 46 0;
#X connect 15 0 128 0;
#X connect 15 0 78 0;
#X connect 16 0 46 0;
#X connect 16 0 128 0;
#X connect 16 0 78 0;
#X connect 17 0 46 0;
#X connect 17 0 128 0;
#X connect 17 0 78 0;
#X connect 18 0 47 0;
#X connect 18 0 127 0;
#X connect 18 0 79 0;
#X connect 19 0 47 0;
#X connect 19 0 127 0;
#X connect 19 0 79 0;
#X connect 20 0 47 0;
#X connect 20 0 127 0;
#X connect 20 0 79 0;
#X connect 21 0 48 0;
#X connect 21 0 126 0;
#X connect 21 0 80 0;
#X connect 22 0 48 0;
#X connect 22 0 126 0;
#X connect 22 0 80 0;
#X connect 23 0 48 0;
#X connect 23 0 126 0;
#X connect 23 0 80 0;
#X connect 24 0 49 0;
#X connect 24 0 125 0;
#X connect 24 0 81 0;
#X connect 25 0 49 0;
#X connect 25 0 125 0;
#X connect 25 0 81 0;
#X connect 26 0 49 0;
#X connect 26 0 125 0;
#X connect 26 0 81 0;
#X connect 27 0 11 0;
#X connect 27 0 141 0;
#X connect 27 0 84 0;
#X connect 28 0 11 0;
#X connect 28 0 141 0;
#X connect 28 0 84 0;
#X connect 29 0 11 0;
#X connect 29 0 141 0;
#X connect 29 0 84 0;
#X connect 30 0 56 0;
#X connect 30 0 142 0;
#X connect 30 0 85 0;
#X connect 31 0 56 0;
#X connect 31 0 142 0;
#X connect 31 0 85 0;
#X connect 32 0 56 0;
#X connect 32 0 142 0;
#X connect 32 0 85 0;
#X connect 33 0 57 0;
#X connect 33 0 143 0;
#X connect 33 0 104 0;
#X connect 34 0 57 0;
#X connect 34 0 143 0;
#X connect 34 0 104 0;
#X connect 35 0 57 0;
#X connect 35 0 143 0;
#X connect 35 0 104 0;
#X connect 36 0 58 0;
#X connect 36 0 144 0;
#X connect 36 0 105 0;
#X connect 37 0 58 0;
#X connect 37 0 144 0;
#X connect 37 0 105 0;
#X connect 38 0 58 0;
#X connect 38 0 144 0;
#X connect 38 0 105 0;
#X connect 39 0 59 0;
#X connect 39 0 145 0;
#X connect 39 0 106 0;
#X connect 40 0 59 0;
#X connect 40 0 145 0;
#X connect 40 0 106 0;
#X connect 41 0 59 0;
#X connect 41 0 145 0;
#X connect 41 0 106 0;
#X connect 42 0 115 0;
#X connect 44 0 116 0;
#X connect 45 0 117 0;
#X connect 46 0 118 0;
#X connect 47 0 119 0;
#X connect 48 0 120 0;
#X connect 49 0 121 0;
#X connect 56 0 137 0;
#X connect 57 0 138 0;
#X connect 58 0 139 0;
#X connect 59 0 140 0;
#X connect 65 0 107 0;
#X connect 66 0 67 0;
#X connect 67 0 76 0;
#X connect 67 1 75 0;
#X connect 67 2 77 0;
#X connect 67 3 74 0;
#X connect 67 4 73 0;
#X connect 68 0 72 0;
#X connect 69 0 72 0;
#X connect 70 0 72 0;
#X connect 71 0 72 0;
#X connect 72 0 65 0;
#X connect 72 0 99 0;
#X connect 73 0 72 1;
#X connect 74 0 72 1;
#X connect 75 0 72 1;
#X connect 76 0 72 1;
#X connect 77 0 72 1;
#X connect 78 0 72 0;
#X connect 79 0 72 0;
#X connect 80 0 72 0;
#X connect 81 0 72 0;
#X connect 84 0 72 0;
#X connect 85 0 72 0;
#X connect 97 0 98 0;
#X connect 98 0 66 0;
#X connect 99 0 100 0;
#X connect 100 0 65 0;
#X connect 101 0 99 1;
#X connect 104 0 72 0;
#X connect 105 0 72 0;
#X connect 106 0 72 0;
#X connect 107 0 109 0;
#X connect 107 1 108 0;
#X connect 112 0 113 0;
#X connect 113 0 9 0;
#X connect 114 0 113 0;
#X connect 115 0 129 0;
#X connect 116 0 130 0;
#X connect 117 0 131 0;
#X connect 118 0 135 0;
#X connect 119 0 134 0;
#X connect 120 0 133 0;
#X connect 121 0 132 0;
#X connect 122 0 129 0;
#X connect 123 0 130 0;
#X connect 124 0 131 0;
#X connect 125 0 132 0;
#X connect 126 0 133 0;
#X connect 127 0 134 0;
#X connect 128 0 135 0;
#X connect 129 0 43 0;
#X connect 130 0 50 0;
#X connect 131 0 51 0;
#X connect 132 0 55 0;
#X connect 133 0 54 0;
#X connect 134 0 53 0;
#X connect 135 0 52 0;
#X connect 136 0 146 0;
#X connect 137 0 147 0;
#X connect 138 0 148 0;
#X connect 139 0 149 0;
#X connect 140 0 150 0;
#X connect 141 0 146 0;
#X connect 142 0 147 0;
#X connect 143 0 148 0;
#X connect 144 0 149 0;
#X connect 145 0 150 0;
#X connect 146 0 60 0;
#X connect 147 0 61 0;
#X connect 148 0 62 0;
#X connect 149 0 63 0;
#X connect 150 0 64 0;
#X coords 0 -1 1 1 308 168 1 155 245;
