#N canvas 1153 126 515 450 10;
#X floatatom 153 130 5 10 16000 1 Hz - - 0;
#X obj 17 25 inlet~;
#X obj 119 22 inlet;
#X obj 19 338 outlet~;
#X floatatom 152 97 5 -20 20 1 dB - - 0;
#X obj 284 4 loadbang;
#X obj 284 25 bng 15 250 50 0 empty empty empty 17 7 0 10 #fcfcfc #000000 #000000;
#X obj 339 72 samplerate~;
#X floatatom 328 95 5 0 0 0 - - - 0;
#N canvas 172 492 849 538 coeff 1;
#X obj 13 10 inlet kind;
#X text 15 404 bass boost;
#X floatatom 10 494 5 0 0 0 - - - 0;
#X floatatom 184 492 5 0 0 0 - - - 0;
#X floatatom 355 494 5 0 0 0 - - - 0;
#X floatatom 524 496 5 0 0 0 - - - 0;
#X floatatom 704 494 5 0 0 0 - - - 0;
#X obj 11 425 expr b0_\$0 = (1 + pow(2 * Vo_\$0 \, 0.5) * K_\$0 + Vo_\$0 * pow(K_\$0 \, 2)) / (1 + pow(2 \, 0.5) * K_\$0 + pow(K_\$0 \, 2)) \; b1_\$0 = (2 * (Vo_\$0 * pow(K_\$0 \, 2) - 1) ) / (1 + pow(2 \, 0.5) * K_\$0 + pow(K_\$0 \, 2)) \; b2_\$0 = (1 - pow(2 * Vo_\$0 \, 0.5)*K_\$0 + Vo_\$0 * pow(K_\$0 \, 2)) / (1 + pow(2 \, 0.5) * K_\$0 + pow(K_\$0 \, 2)) \; a1_\$0 = (2 * (pow(K_\$0 \, 2) - 1) ) / (1 + pow(2 \, 0.5) * K_\$0 + pow(K_\$0 \, 2)) \; a2_\$0 = (1 - pow(2 \, 0.5) * K_\$0 + pow(K_\$0 \, 2)) / (1 + pow(2 \, 0.5) * K_\$0 + pow(K_\$0 \, 2)) \;, f 116;
#X floatatom 26 389 5 0 0 0 - - - 0;
#X floatatom 192 389 5 0 0 0 - - - 0;
#X floatatom 362 388 5 0 0 0 - - - 0;
#X floatatom 531 391 5 0 0 0 - - - 0;
#X floatatom 705 389 5 0 0 0 - - - 0;
#X text 31 291 bass cut;
#X obj 27 315 expr b0_\$0 = Vo_\$0 * (1+pow(2 \, 0.5) * K_\$0+pow(K_\$0 \, 2)) / (Vo_\$0 + pow(2*Vo_\$0 \, 0.5) * K_\$0 + pow(K_\$0 \, 2)) \; b1_\$0 = (2 * Vo_\$0 * (pow(K_\$0 \, 2) - 1) ) / (Vo_\$0 + pow(2 * Vo_\$0 \, 0.5) * K_\$0 + pow(K_\$0 \, 2)) \; b2_\$0 = Vo_\$0 * (1 - pow(2 \, 0.5) * K_\$0 + pow(K_\$0 \, 2)) / (Vo_\$0 + pow(2 * Vo_\$0 \, 0.5) * K_\$0 + pow(K_\$0 \, 2)) \; a1_\$0 = 2 * (pow(K_\$0 \, 2)-Vo_\$0) / (Vo_\$0 + pow(2 * Vo_\$0 \, 0.5) * K_\$0 + pow(K_\$0 \, 2)) \; a2_\$0 = (Vo_\$0 - pow(2 * Vo_\$0 \, 0.5) * K_\$0 + pow(K_\$0 \, 2)) / (Vo_\$0 + pow(2 * Vo_\$0 \, 0.5) * K_\$0 + pow(K_\$0 \, 2)) \;, f 115;
#X obj 13 33 sel 1 2 3 4;
#X floatatom 43 265 5 0 0 0 - - - 0;
#X floatatom 217 263 5 0 0 0 - - - 0;
#X floatatom 388 265 5 0 0 0 - - - 0;
#X floatatom 557 267 5 0 0 0 - - - 0;
#X floatatom 737 265 5 0 0 0 - - - 0;
#X floatatom 59 160 5 0 0 0 - - - 0;
#X floatatom 225 160 5 0 0 0 - - - 0;
#X floatatom 426 151 5 0 0 0 - - - 0;
#X floatatom 619 155 5 0 0 0 - - - 0;
#X floatatom 801 152 5 0 0 0 - - - 0;
#X text 68 62 treble cut;
#X text 48 176 treble boost;
#X obj 44 196 expr b0_\$0 = (Vo_\$0 + pow(2 * Vo_\$0 \, 0.5) * K_\$0 + pow(K_\$0 \, 2)) / (1 + pow(2 \, 0.5) * K_\$0 + pow(K_\$0 \, 2)) \; b1_\$0 = (2 * (pow(K_\$0 \, 2) - Vo_\$0) ) / (1 + pow(2 \, 0.5) * K_\$0 + pow(K_\$0 \, 2)) \; b2_\$0 = (Vo_\$0 - pow(2 * Vo_\$0 \, 0.5) * K_\$0 + pow(K_\$0 \, 2)) / (1 + pow(2 \, 0.5) * K_\$0 + pow(K_\$0 \, 2)) \; a1_\$0 = (2 * (pow(K_\$0 \, 2) - 1) ) / (1 + pow(2 \, 0.5) * K_\$0 + pow(K_\$0 \, 2)) \; a2_\$0 = (1 - pow(2 \, 0.5) * K_\$0 + pow(K_\$0 \, 2)) / (1 + pow(2 \, 0.5) * K_\$0 + pow(K_\$0 \, 2)) \;, f 116;
#X obj 60 86 expr b0_\$0 = Vo_\$0 * (1 + pow(2 \, 0.5) * K_\$0 + pow(K_\$0 \, 2)) / (1 + pow(2 * Vo_\$0 \, 0.5) * K_\$0 + Vo_\$0 * pow(K_\$0 \, 2)) \; b1_\$0 = 2 * Vo_\$0 * (pow(K_\$0 \, 2) - 1) / (1 + pow(2 * Vo_\$0 \, 0.5) * K_\$0 + Vo_\$0 * pow(K_\$0 \, 2)) \; b2_\$0 = Vo_\$0 * (1 - pow(2 \, 0.5) * K_\$0 + pow(K_\$0 \, 2)) / (1 + pow(2 * Vo_\$0 \, 0.5) * K_\$0 + Vo_\$0 * pow(K_\$0 \, 2)) \; a1_\$0 = 2 * (Vo_\$0 * (pow(K_\$0 \, 2)) - 1) / (1 + pow(2 * Vo_\$0 \, 0.5) * K_\$0 + Vo_\$0 * pow(K_\$0 \, 2)) \; a2_\$0 = (1 - pow(2 * Vo_\$0 \, 0.5) * K_\$0 + Vo_\$0 * pow(K_\$0 \, 2)) / (1 + pow(2 * Vo_\$0 \, 0.5) * K_\$0 + Vo_\$0 * pow(K_\$0 \, 2)) \;, f 124;
#X connect 0 0 15 0;
#X connect 7 0 2 0;
#X connect 7 1 3 0;
#X connect 7 2 4 0;
#X connect 7 3 5 0;
#X connect 7 4 6 0;
#X connect 14 0 8 0;
#X connect 14 1 9 0;
#X connect 14 2 10 0;
#X connect 14 3 11 0;
#X connect 14 4 12 0;
#X connect 15 0 7 0;
#X connect 15 1 14 0;
#X connect 15 2 28 0;
#X connect 15 3 29 0;
#X connect 28 0 16 0;
#X connect 28 1 17 0;
#X connect 28 2 18 0;
#X connect 28 3 19 0;
#X connect 28 4 20 0;
#X connect 29 0 21 0;
#X connect 29 1 22 0;
#X connect 29 2 23 0;
#X connect 29 3 24 0;
#X connect 29 4 25 0;
#X restore 77 255 pd coeff;
#X f 26;
#X obj 106 155 vradio 15 1 0 3 empty empty empty 0 -8 0 10 #fcfcfc #000000 #000000 0;
#X text 153 151 bypass;
#X obj 284 43 t b b b b;
#X msg 203 67 6;
#X obj 73 339 v Vo_\$0;
#X obj 247 170 expr Vo_\$0 = pow(10 \, abs($f1)/20);
#X obj 239 124 expr K_\$0 = tan(3.141592*$f1 / $f2);
#X obj 125 339 v K_\$0;
#X floatatom 251 191 5 0 0 0 - - - 0;
#X floatatom 250 146 5 0 0 0 - - - 0;
#X obj 170 339 v b0_\$0;
#X obj 222 339 v b1_\$0;
#X obj 273 339 v b2_\$0;
#X obj 324 339 v a1_\$0;
#X obj 376 339 v a2_\$0, f 8;
#X msg 283 81 50;
#X obj 19 298 fexpr~ if($f2==0 \, $x1 \, b0_\$0*$x1[0] + b1_\$0*$x1[-1] + b2_\$0*$x1[-2] - a1_\$0*$y1[-1] - a2_\$0*$y1[-2]), f 68;
#X obj 50 104 bang~;
#X obj 114 116 hsl 80 12 30 16000 1 0 empty empty empty -2 -8 0 10 #fcfcfc #000000 #000000 0 1;
#X text 154 168 boost;
#X text 154 183 cut;
#X floatatom 153 76 5 0 0 1 Q - - 0;
#X connect 0 0 16 0;
#X connect 1 0 26 0;
#X connect 2 0 0 0;
#X connect 4 0 15 0;
#X connect 5 0 6 0;
#X connect 6 0 12 0;
#X connect 7 0 8 0;
#X connect 7 0 16 1;
#X connect 10 0 9 0;
#X connect 10 0 26 1;
#X connect 12 0 10 0;
#X connect 12 1 25 0;
#X connect 12 2 13 0;
#X connect 12 3 7 0;
#X connect 13 0 4 0;
#X connect 15 0 18 0;
#X connect 16 0 19 0;
#X connect 25 0 28 0;
#X connect 26 0 3 0;
#X connect 27 0 10 0;
#X connect 28 0 0 0;
#X coords 0 -1 1 1 100 160 1 100 50;
