#N canvas 1207 450 427 401 10;
#X msg 32 148 60;
#X msg 63 148 62;
#X msg 94 148 64;
#X msg 156 148 67;
#X obj 123 200 mtof;
#X floatatom 123 230 5 0 0 0 - - - 0;
#X obj 123 298 hip~ 5;
#X msg 125 148 65;
#X msg 187 148 69;
#X msg 218 148 71;
#X msg 266 148 72;
#X obj 123 21 tgl 15 0 empty empty empty 17 7 0 10 #fcfcfc #000000 #000000 0 1;
#X obj 123 78 random 5;
#X obj 123 109 select 0 1 2 3 4;
#X obj 123 47 metro 250;
#X obj 123 268 osc~ 0;
#X obj 121 334 output~;
#X connect 0 0 4 0;
#X connect 1 0 4 0;
#X connect 2 0 4 0;
#X connect 3 0 4 0;
#X connect 4 0 5 0;
#X connect 5 0 15 0;
#X connect 6 0 16 0;
#X connect 6 0 16 1;
#X connect 7 0 4 0;
#X connect 8 0 4 0;
#X connect 9 0 4 0;
#X connect 10 0 4 0;
#X connect 11 0 14 0;
#X connect 12 0 13 0;
#X connect 13 0 0 0;
#X connect 13 1 1 0;
#X connect 13 2 2 0;
#X connect 13 3 3 0;
#X connect 13 4 8 0;
#X connect 14 0 12 0;
#X connect 15 0 6 0;
