#N canvas 763 174 880 776 12;
#X obj 85 49 adc~;
#X obj 85 292 output~;
#X obj 86 156 *~;
#X obj 158 100 hsl 162 19 0 30 0 0 empty empty Gain -2 -10 0 12 #c6ffc7 #000000 #000000 0 1;
#X obj 135 210 delwrite~ audio-buffer 5000;
#X floatatom 394 71 5 0 0 0 - - - 0;
#X obj 395 94 delread~ audio-buffer 0;
#X obj 392 32 hsl 162 19 0 5000 0 0 empty empty Delay_time -2 -10 0 12 #c6ffc7 #000000 #000000 0 1;
#X obj 392 281 output~;
#X obj 472 260 s~ feedback;
#X obj 164 176 r~ feedback;
#X obj 392 203 *~;
#X obj 427 169 hsl 162 19 0 1 0 0 empty empty feedback_ampt -2 -10 0 12 #c6ffc7 #000000 #000000 0 1;
#X obj 336 399 key-keyboard;
#X obj 60 448 output~;
#X obj 94 400 osc~;
#X obj 729 377 print note;
#X obj 679 275 makenote 100 1000;
#X obj 663 342 noteout;
#X floatatom 684 216 5 0 0 0 - - - 0;
#X msg 610 269 100;
#X obj 335 429 mtof;
#X obj 348 649 output~;
#X obj 436 530 osc~;
#X obj 627 527 osc~;
#X obj 627 489 expr $f1*3 / 2;
#X obj 328 526 osc~;
#X obj 158 526 osc~;
#X obj 349 573 *~ 1;
#X obj 158 488 expr $f1*1 / 2;
#X obj 431 493 expr $f1*3/2;
#X connect 0 0 2 0;
#X connect 2 0 1 0;
#X connect 2 0 1 1;
#X connect 2 0 4 0;
#X connect 3 0 2 1;
#X connect 5 0 6 0;
#X connect 6 0 11 0;
#X connect 7 0 5 0;
#X connect 10 0 4 0;
#X connect 11 0 8 0;
#X connect 11 0 8 1;
#X connect 11 0 9 0;
#X connect 12 0 11 1;
#X connect 13 0 21 0;
#X connect 15 0 14 0;
#X connect 15 0 14 1;
#X connect 17 0 18 0;
#X connect 17 1 18 1;
#X connect 19 0 17 0;
#X connect 20 0 18 0;
#X connect 20 0 18 1;
#X connect 21 0 25 0;
#X connect 21 0 26 0;
#X connect 21 0 29 0;
#X connect 21 0 30 0;
#X connect 23 0 28 0;
#X connect 25 0 24 0;
#X connect 26 0 28 0;
#X connect 27 0 28 0;
#X connect 28 0 22 0;
#X connect 28 0 22 1;
#X connect 29 0 27 0;
#X connect 30 0 23 0;
