#N canvas 911 435 831 450 10;
#X floatatom 153 130 5 10 16000 1 Hz - - 0;
#X obj 17 25 inlet~;
#X obj 119 22 inlet;
#X obj 16 334 outlet~;
#X floatatom 152 97 5 -20 20 1 dB - - 0;
#X obj 284 4 loadbang;
#X obj 284 25 bng 15 250 50 0 empty empty empty 17 7 0 10 #fcfcfc #000000 #000000;
#X obj 370 74 samplerate~;
#X floatatom 335 107 5 0 0 0 - - - 0;
#N canvas 498 126 849 444 coeff 0;
#X obj 13 10 inlet kind;
#X floatatom 12 296 5 0 0 0 - - - 0;
#X floatatom 162 304 5 0 0 0 - - - 0;
#X floatatom 310 302 5 0 0 0 - - - 0;
#X floatatom 457 303 5 0 0 0 - - - 0;
#X floatatom 603 301 5 0 0 0 - - - 0;
#X floatatom 32 164 5 0 0 0 - - - 0;
#X floatatom 199 168 5 0 0 0 - - - 0;
#X floatatom 364 166 5 0 0 0 - - - 0;
#X floatatom 531 162 5 0 0 0 - - - 0;
#X floatatom 695 166 5 0 0 0 - - - 0;
#X obj 13 33 sel 1 2;
#X text 17 206 boost;
#X text 36 68 cut;
#X obj 13 227 expr b0_\$0 = (1 + (Vo_\$0 / Q_\$0) * K_\$0 + pow(K_\$0 \, 2)) / (1 + (1 / Q_\$0) * K_\$0 + pow(K_\$0 \, 2)) \; b1_\$0 = (2 * (pow(K_\$0 \, 2) - 1)) / (1 + (1 / Q_\$0) * K_\$0 + pow(K_\$0 \, 2)) \; b2_\$0 = (1 - (Vo_\$0 / Q_\$0) * K_\$0 + pow(K_\$0 \, 2)) / (1 + (1 / Q_\$0) * K_\$0 + pow(K_\$0 \, 2)) \; a1_\$0 = (2 * (pow(K_\$0 \, 2) - 1)) / (1 + (1 / Q_\$0) * K_\$0 + pow(K_\$0 \, 2)) \; a2_\$0 = (1 - (1 / Q_\$0) * K_\$0 + pow(K_\$0 \, 2)) / (1 + (1 / Q_\$0) * K_\$0 + pow(K_\$0 \, 2)) \;, f 99;
#X obj 32 92 expr b0_\$0 = (1 + (1 / Q_\$0) * K_\$0 + pow(K_\$0 \, 2)) / (1 + (1 / (Vo_\$0 * Q_\$0)) * K_\$0 + pow(K_\$0 \, 2)) \; b1_\$0 = (2 * (pow(K_\$0 \, 2) - 1)) / (1 + (1 / (Vo_\$0 * Q_\$0)) * K_\$0 + pow(K_\$0 \, 2)) \; b2_\$0 = (1 - (1 / Q_\$0) * K_\$0 + pow(K_\$0 \, 2)) / (1 + (1 / (Vo_\$0 * Q_\$0)) * K_\$0 + pow(K_\$0 \, 2)) \; a1_\$0 = (2 * (pow(K_\$0 \, 2) - 1)) / (1 + (1 / (Vo_\$0 * Q_\$0)) * K_\$0 + pow(K_\$0 \, 2)) \; a2_\$0 = (1 - (1 / (Vo_\$0 * Q_\$0)) * K_\$0 + pow(K_\$0 \, 2)) / (1 + (1 / (Vo_\$0 * Q_\$0)) * K_\$0 + pow(K_\$0 \, 2)) \;, f 111;
#X connect 0 0 11 0;
#X connect 11 0 14 0;
#X connect 11 1 15 0;
#X connect 14 0 1 0;
#X connect 14 1 2 0;
#X connect 14 2 3 0;
#X connect 14 3 4 0;
#X connect 14 4 5 0;
#X connect 15 0 6 0;
#X connect 15 1 7 0;
#X connect 15 2 8 0;
#X connect 15 3 9 0;
#X connect 15 4 10 0;
#X restore 79 248 pd coeff;
#X f 9;
#X obj 106 155 vradio 15 1 0 3 empty empty empty 0 -8 0 10 #fcfcfc #000000 #000000 0;
#X text 153 151 bypass;
#X msg 206 79 6;
#X obj 70 335 v Vo_\$0;
#X obj 220 242 expr Vo_\$0 = pow(10 \, abs($f1)/20);
#X obj 223 185 expr K_\$0 = tan(3.141592*$f1 / $f2);
#X obj 122 335 v K_\$0;
#X floatatom 220 267 5 0 0 0 - - - 0;
#X floatatom 223 209 5 0 0 0 - - - 0;
#X obj 167 335 v b0_\$0;
#X obj 219 335 v b1_\$0;
#X obj 270 335 v b2_\$0;
#X obj 321 335 v a1_\$0;
#X obj 373 335 v a2_\$0, f 8;
#X msg 283 85 50;
#X obj 16 294 fexpr~ if($f2==0 \, $x1 \, b0_\$0*$x1[0] + b1_\$0*$x1[-1] + b2_\$0*$x1[-2] - a1_\$0*$y1[-1] - a2_\$0*$y1[-2]), f 68;
#X obj 50 104 bang~;
#X obj 114 116 hsl 80 12 30 16000 1 0 empty empty empty -2 -8 0 10 #fcfcfc #000000 #000000 0 1;
#X text 154 168 boost;
#X text 154 183 cut;
#X floatatom 153 76 5 0 0 1 Q - Q_\$0 0;
#X obj 431 335 v Q_\$0;
#X floatatom 431 377 5 0 0 0 - - - 0;
#X obj 284 43 t b b b b b;
#X msg 209 52 3;
#X connect 0 0 15 0;
#X connect 1 0 25 0;
#X connect 2 0 0 0;
#X connect 4 0 14 0;
#X connect 5 0 6 0;
#X connect 6 0 33 0;
#X connect 7 0 8 0;
#X connect 7 0 15 1;
#X connect 10 0 9 0;
#X connect 10 0 25 1;
#X connect 12 0 4 0;
#X connect 14 0 17 0;
#X connect 15 0 18 0;
#X connect 24 0 27 0;
#X connect 25 0 3 0;
#X connect 26 0 10 0;
#X connect 27 0 0 0;
#X connect 31 0 32 0;
#X connect 33 0 10 0;
#X connect 33 1 34 0;
#X connect 33 2 12 0;
#X connect 33 3 24 0;
#X connect 33 4 7 0;
#X connect 34 0 30 0;
#X coords 0 -1 1 1 100 160 1 100 50;
