#N canvas 354 197 649 705 12;
#X obj 315 18 loadbang;
#X obj 315 42 bng 19 250 50 0 empty empty empty 0 -10 0 12 #fcfcfc #000000 #000000;
#X obj 315 66 t b b b;
#X obj 75 174 shelf;
#X obj 273 167 peakFilter;
#X obj 462 166 shelf;
#X msg 168 139 200;
#X msg 348 137 1000;
#X msg 537 139 4000;
#X obj 76 125 noise~;
#X obj 76 149 *~ 0.1;
#X obj 462 424 output~;
#X obj 201 415 timeDisplay;
#X floatatom 394 384 5 0 0 0 - - - 0;
#X connect 0 0 1 0;
#X connect 1 0 2 0;
#X connect 2 0 6 0;
#X connect 2 1 7 0;
#X connect 2 2 8 0;
#X connect 3 0 4 0;
#X connect 4 0 5 0;
#X connect 5 0 11 0;
#X connect 5 0 11 1;
#X connect 5 0 12 0;
#X connect 6 0 3 1;
#X connect 7 0 4 1;
#X connect 8 0 5 1;
#X connect 9 0 10 0;
#X connect 10 0 3 0;
#X connect 13 0 12 1;
