#N canvas 900 156 817 796 12;
#X obj 107 42 play;
#X obj 102 158 hilbert~;
#X obj 104 199 *~;
#X floatatom 219 55 5 0 0 1 FreqShift - - 0;
#X obj 235 156 osc~;
#X obj 279 155 osc~;
#X obj 382 24 loadbang;
#X obj 281 209 *~;
#X obj 159 432 output~;
#X msg 353 113 -0.25;
#X obj 240 299 expr~ 0.5*($v1+$v2);
#X obj 84 300 expr~ 0.5*($v1-$v2);
#X msg 295 112 0;
#X obj 383 65 bng 19 250 50 0 empty empty empty 0 -10 0 12 #fcfcfc #000000 #000000;
#X obj 102 121 *~ 0.5;
#X obj 129 533 timeDisplay 20;
#X obj 216 378 +~;
#X obj 140 376 +~;
#X obj 21 454 outlet~;
#X obj 290 441 outlet~;
#X obj 39 70 inlet~;
#X connect 0 0 14 0;
#X connect 1 0 2 0;
#X connect 1 1 7 0;
#X connect 2 0 11 0;
#X connect 2 0 10 0;
#X connect 3 0 4 0;
#X connect 3 0 5 0;
#X connect 4 0 2 1;
#X connect 5 0 7 1;
#X connect 6 0 13 0;
#X connect 7 0 11 1;
#X connect 7 0 10 1;
#X connect 9 0 5 1;
#X connect 10 0 16 1;
#X connect 11 0 17 0;
#X connect 12 0 4 1;
#X connect 13 0 9 0;
#X connect 13 0 12 0;
#X connect 14 0 1 0;
#X connect 14 0 16 0;
#X connect 14 0 17 1;
#X connect 16 0 8 1;
#X connect 16 0 19 0;
#X connect 17 0 8 0;
#X connect 17 0 15 0;
#X connect 17 0 18 0;
#X connect 20 0 14 0;
#X coords 0 -1 1 1 120 60 1 210 30;
