#N canvas 1332 404 477 667 12;
#X obj 84 35 play;
#X obj 84 124 hilbert~;
#X obj 86 178 *~;
#X floatatom 244 29 5 0 0 1 FreqShift - - 0;
#X obj 233 108 osc~;
#X obj 277 107 osc~;
#X obj 337 62 loadbang;
#X obj 254 190 *~;
#X obj 157 353 output~;
#X msg 337 87 -0.25;
#X obj 70 438 timeDisplay 100;
#X obj 223 284 expr~ 0.5*($v1+$v2);
#X obj 66 279 expr~ 0.5*($v1-$v2);
#X connect 0 0 1 0;
#X connect 1 0 2 0;
#X connect 1 1 7 0;
#X connect 2 0 12 0;
#X connect 2 0 11 0;
#X connect 3 0 4 0;
#X connect 3 0 5 0;
#X connect 4 0 2 1;
#X connect 5 0 7 1;
#X connect 6 0 9 0;
#X connect 7 0 12 1;
#X connect 7 0 11 1;
#X connect 9 0 5 1;
#X connect 11 0 8 1;
#X connect 12 0 8 0;
#X connect 12 0 10 0;
