#N canvas 917 214 648 680 12;
#X obj 173 14 loadbang;
#X obj 16 125 inlet~;
#N canvas 690 364 1012 651 processing 1;
#X obj 45 395 cnv 19 450 76 empty empty Gain_smoothing 20 12 0 12 #c6feff #404040 0;
#X obj 97 127 cnv 19 800 76 empty empty Makeup_Gain 20 12 0 12 #feffc6 #404040 0;
#X obj 102 236 cnv 19 800 76 empty empty Gain_computer 20 12 0 12 #e0e0e0 #404040 0;
#X obj 50 31 inlet~;
#X obj 417 23 inlet;
#X obj 417 47 switch~;
#X obj 482 222 s~ m\$0;
#X obj 111 148 fexpr~ if(halfW_\$0<thr_\$0 \, 0 \, 0) \; if((thr_\$0>=(-halfW_\$0))&&(thr_\$0<=(halfW_\$0)) \, -(pow(thr_\$0 - halfW_\$0 \, 3)/(4*halfW_\$0)) \, 0) \; if(-halfW_\$0 > thr_\$0 \, -thr_\$0 \, 0), f 108;
#X obj 48 79 fexpr~ 20*log10(abs($x1)+0.00001);
#X obj 53 574 outlet~;
#X obj 264 503 r~ m\$0;
#X obj 52 529 fexpr~ pow(10 \, (CG_\$0+$x2)/20) \;;
#X obj 50 349 fexpr~ $x2-$x1 \;;
#X obj 53 429 fexpr~ if($x1<= CG_\$0 \, CG_\$0 = $f2* CG_\$0 + (1-$f2)*$x1 \, CG_\$0 = $f3* CG_\$0 + (1-$f3)*$x1);
#X obj 246 401 r alpha_a;
#X obj 427 400 r alpha_r;
#X obj 113 256 fexpr~ if($x1<( thr_\$0 - halfW_\$0) \, $x1 \, 0) \; if(($x1>=( thr_\$0 - halfW_\$0))&&($x1<=(thr_\$0 + halfW_\$0)) \, $x1+(pow( thr_\$0 - halfW_\$0 \, 3)/(4*halfW_\$0)) \, 0) \; if($x1>( thr_\$0 + halfW_\$0) \, thr_\$0 \, 0), f 111;
#X connect 3 0 8 0;
#X connect 4 0 5 0;
#X connect 7 0 6 0;
#X connect 7 1 6 0;
#X connect 7 2 6 0;
#X connect 8 0 7 0;
#X connect 8 0 12 0;
#X connect 10 0 11 1;
#X connect 11 0 9 0;
#X connect 12 0 13 0;
#X connect 13 0 11 0;
#X connect 14 0 13 1;
#X connect 15 0 13 2;
#X connect 16 0 12 1;
#X connect 16 1 12 1;
#X connect 16 2 12 1;
#X restore 106 354 pd processing;
#X obj 20 530 outlet~;
#X obj 173 38 t b b b b b;
#X obj 121 155 hsl 70 19 0 127 0 0 empty empty empty -2 -10 0 12 #fcfcfc #000000 #000000 0 1;
#X obj 220 154 hsl 70 19 0 127 0 0 empty empty empty -2 -10 0 12 #fcfcfc #000000 #000000 0 1;
#X obj 318 155 hsl 70 19 0 127 0 0 empty empty empty -2 -10 0 12 #fcfcfc #000000 #000000 0 1;
#X obj 418 155 hsl 70 19 0 127 0 0 empty empty empty -2 -10 0 12 #fcfcfc #000000 #000000 0 1;
#X obj 455 107 tgl 19 0 empty empty empty 0 -10 0 12 #fcfcfc #000000 #000000 0 1;
#X obj 480 107 bng 19 250 50 0 empty empty empty 0 -10 0 12 #fcfcfc #000000 #000000;
#X floatatom 118 179 5 0 0 0 - - - 0;
#X floatatom 217 178 5 0 0 0 - - - 0;
#X floatatom 315 179 5 0 0 0 - - - 0;
#X floatatom 415 179 5 0 0 0 - - - 0;
#X msg 441 61 1;
#X obj 20 490 expr~ if($f3==0 \, $v1 \, $v2);
#X obj 94 405 fexpr~ $x1*$x2;
#X obj 118 202 v thr_\$0;
#X obj 217 201 / 1000;
#X obj 217 225 s TA_\$0;
#X obj 315 202 / 1000;
#X obj 315 226 s TR_\$0;
#X obj 415 202 / 2;
#X obj 415 226 v halfW_\$0;
#X text 117 131 Thrshld/dB;
#X text 212 130 Attack/ms;
#X text 311 130 Release/ms;
#X text 414 133 Knee/dB;
#X msg 110 72 -15;
#X msg 198 70 4;
#X msg 286 77 100;
#X msg 384 80 0;
#X obj 532 87 loadbang;
#X obj 532 111 bng 19 250 50 0 empty empty empty 0 -10 0 12 #fcfcfc #000000 #000000;
#X msg 532 135 1;
#X obj 532 180 v CG_\$0;
#X floatatom 532 204 5 0 0 0 - - - 0;
#X obj 571 137 bng 19 250 50 0 empty empty empty 0 -10 0 12 #fcfcfc #000000 #000000;
#X obj 551 273 loadbang;
#X obj 551 297 bng 19 250 50 0 empty empty empty 0 -10 0 12 #fcfcfc #000000 #000000;
#X obj 551 321 samplerate~;
#X floatatom 591 406 5 0 0 0 - - - 0;
#X obj 602 368 s sr;
#X obj 358 351 r TA_\$0;
#X obj 358 412 expr exp(-2.1972/($f3*$f1)) \; exp(-2.1972/($f3*$f2)) \;;
#X obj 454 352 r TR_\$0;
#X obj 414 381 bng 19 250 50 0 empty empty empty 0 -10 0 12 #fcfcfc #000000 #000000;
#X floatatom 358 450 5 0 0 0 alpha_a - alpha_a 0;
#X floatatom 551 450 5 0 0 0 alpha_r - alpha_r 0;
#X connect 0 0 4 0;
#X connect 1 0 16 0;
#X connect 1 0 17 0;
#X connect 1 0 2 0;
#X connect 2 0 17 1;
#X connect 4 0 29 0;
#X connect 4 1 30 0;
#X connect 4 2 31 0;
#X connect 4 3 32 0;
#X connect 4 4 15 0;
#X connect 5 0 11 0;
#X connect 6 0 12 0;
#X connect 7 0 13 0;
#X connect 8 0 14 0;
#X connect 9 0 16 2;
#X connect 9 0 2 1;
#X connect 10 0 34 0;
#X connect 10 0 40 0;
#X connect 11 0 18 0;
#X connect 12 0 19 0;
#X connect 13 0 21 0;
#X connect 14 0 23 0;
#X connect 15 0 9 0;
#X connect 16 0 3 0;
#X connect 17 0 16 1;
#X connect 19 0 20 0;
#X connect 21 0 22 0;
#X connect 23 0 24 0;
#X connect 29 0 5 0;
#X connect 30 0 6 0;
#X connect 31 0 7 0;
#X connect 32 0 8 0;
#X connect 33 0 34 0;
#X connect 34 0 35 0;
#X connect 35 0 36 0;
#X connect 36 0 37 0;
#X connect 38 0 36 0;
#X connect 39 0 40 0;
#X connect 40 0 41 0;
#X connect 41 0 42 0;
#X connect 41 0 43 0;
#X connect 41 0 45 2;
#X connect 44 0 45 0;
#X connect 45 0 48 0;
#X connect 45 1 49 0;
#X connect 46 0 47 0;
#X connect 46 0 45 1;
#X connect 47 0 45 0;
#X coords 0 -1 1 1 400 100 1 100 100;
