#N canvas 956 250 518 716 12;
#X obj 119 40 adc~;
#X floatatom 186 242 5 0 0 0 - - - 0;
#X obj 191 277 mtof;
#X floatatom 196 316 5 0 0 0 - - - 0;
#X obj 125 165 sigmund~ -npts 4096 -hop 512 pitch env -maxfreq 10000
;
#X obj 286 219 moses;
#X obj 148 202 moses 0;
#X obj 37 355 expr $f1 * 2/3;
#X obj 270 346 expr $f1 * 4/3 - $f1;
#X obj 154 97 s~ mic;
#X obj 80 457 r~ mic;
#X obj 212 637 output~;
#X obj 167 554 *~ 5;
#N canvas 150 175 450 300 freqshift 0;
#X obj 160 82 phasor~;
#X obj 160 132 cos~;
#X obj 206 130 cos~;
#X obj 44 56 inlet~;
#X obj 113 207 *~;
#X obj 45 257 outlet~;
#X obj 160 50 inlet;
#X obj 45 205 *~;
#X obj 206 110 +~ 0.25;
#X obj 44 128 hilbert~;
#X connect 0 0 1 0;
#X connect 0 0 8 0;
#X connect 1 0 7 1;
#X connect 2 0 4 1;
#X connect 3 0 9 0;
#X connect 4 0 5 0;
#X connect 6 0 0 0;
#X connect 7 0 5 0;
#X connect 8 0 2 0;
#X connect 9 0 7 0;
#X connect 9 1 4 0;
#X restore 80 500 pd freqshift;
#X obj 249 456 r~ mic;
#N canvas 150 175 450 300 freqshift 0;
#X obj 160 82 phasor~;
#X obj 160 132 cos~;
#X obj 206 130 cos~;
#X obj 44 56 inlet~;
#X obj 113 207 *~;
#X obj 45 257 outlet~;
#X obj 160 50 inlet;
#X obj 45 205 *~;
#X obj 206 110 +~ 0.25;
#X obj 44 128 hilbert~;
#X connect 0 0 1 0;
#X connect 0 0 8 0;
#X connect 1 0 7 1;
#X connect 2 0 4 1;
#X connect 3 0 9 0;
#X connect 4 0 5 0;
#X connect 6 0 0 0;
#X connect 7 0 5 0;
#X connect 8 0 2 0;
#X connect 9 0 7 0;
#X connect 9 1 4 0;
#X restore 254 500 pd freqshift;
#X obj 228 598 +~;
#X obj 321 449 * 2;
#X obj 270 579 *~ 20;
#X obj 31 526 r~ mic;
#X obj 65 607 *~ 5;
#X floatatom 91 572 5 0 0 0 - - - 0;
#X floatatom 191 510 5 0 0 0 - - - 0;
#X floatatom 328 541 5 0 0 0 - - - 0;
#X obj 147 449 * -2;
#X connect 0 0 4 0;
#X connect 0 0 9 0;
#X connect 1 0 2 0;
#X connect 2 0 3 0;
#X connect 3 0 7 0;
#X connect 3 0 8 0;
#X connect 3 0 17 0;
#X connect 3 0 24 0;
#X connect 4 0 6 0;
#X connect 6 1 1 0;
#X connect 10 0 13 0;
#X connect 12 0 16 0;
#X connect 13 0 12 0;
#X connect 14 0 15 0;
#X connect 15 0 18 0;
#X connect 16 0 11 0;
#X connect 16 0 11 1;
#X connect 17 0 15 1;
#X connect 18 0 16 1;
#X connect 19 0 20 0;
#X connect 20 0 16 0;
#X connect 21 0 20 1;
#X connect 22 0 12 1;
#X connect 23 0 18 1;
#X connect 24 0 13 1;
