#N canvas 664 217 946 754 12;
#X obj 105 -6 adc~;
#X floatatom 159 405 5 0 0 0 - - - 0;
#X obj 159 436 mtof;
#X floatatom 162 470 5 0 0 0 - - - 0;
#X obj 277 392 moses;
#X obj 114 362 moses 0;
#X obj 90 517 expr $f1 * 2/3;
#X obj 234 512 expr $f1 * 4/3 - $f1;
#X obj 99 316 sigmund~ -npts 4096 -hop 512 pitch env -maxfreq 1000;
#X obj 708 258 +~;
#X floatatom 724 182 5 0 0 0 - - - 0;
#X floatatom 700 122 5 0 0 0 - - - 0;
#X obj 698 427 output~;
#X obj 699 208 *~ 1;
#X obj 692 -25 loadbang;
#X obj 700 151 PitchShifter;
#X floatatom 846 179 5 0 0 0 - - - 0;
#X floatatom 822 119 5 0 0 0 - - - 0;
#X obj 821 205 *~ 1;
#X msg 822 93 2;
#X obj 822 148 PitchShifter;
#X floatatom 601 184 5 0 0 0 - - - 0;
#X floatatom 577 124 5 0 0 0 - - - 0;
#X obj 576 210 *~ 1;
#X obj 577 153 PitchShifter;
#X msg 577 98 0.5;
#X msg 700 96 1;
#N canvas 934 367 854 600 ReverbEffect 0;
#X obj 73 46 inlet~;
#X obj 74 150 *~;
#X obj 105 118 hsl 162 19 0 10 0 0 empty empty Gain -2 -10 0 12 #ffe3c6 #000000 #000000 0 1;
#X obj 77 197 rev2~ 100 90 3000 20;
#X obj 77 303 *~;
#X obj 183 265 hsl 162 19 0 10 0 0 empty empty Output -2 -10 0 12 #ffe3c6 #000000 #000000 0 1;
#X obj 78 356 outlet~;
#X connect 0 0 1 0;
#X connect 1 0 3 0;
#X connect 2 0 1 1;
#X connect 3 0 4 0;
#X connect 3 1 4 0;
#X connect 4 0 6 0;
#X connect 5 0 4 1;
#X restore 706 329 pd ReverbEffect;
#X obj 176 190 output~;
#X floatatom 218 28 5 0 0 0 - - - 0;
#X obj 180 126 lop~ 200;
#X floatatom 231 96 5 0 0 0 - - - 0;
#X obj 251 171 s~ mic;
#X obj 148 66 NoiseFilter;
#X obj 222 -25 loadbang;
#X msg 222 0 2;
#X connect 0 0 8 0;
#X connect 0 0 33 0;
#X connect 1 0 2 0;
#X connect 2 0 3 0;
#X connect 3 0 6 0;
#X connect 3 0 7 0;
#X connect 5 1 1 0;
#X connect 8 0 5 0;
#X connect 9 0 27 0;
#X connect 10 0 13 1;
#X connect 11 0 15 0;
#X connect 13 0 9 0;
#X connect 14 0 26 0;
#X connect 14 0 25 0;
#X connect 14 0 19 0;
#X connect 15 0 13 0;
#X connect 16 0 18 1;
#X connect 17 0 20 0;
#X connect 18 0 9 0;
#X connect 19 0 17 0;
#X connect 20 0 18 0;
#X connect 21 0 23 1;
#X connect 22 0 24 0;
#X connect 23 0 9 0;
#X connect 24 0 23 0;
#X connect 25 0 22 0;
#X connect 26 0 11 0;
#X connect 27 0 12 0;
#X connect 27 0 12 1;
#X connect 29 0 33 1;
#X connect 30 0 28 0;
#X connect 30 0 28 1;
#X connect 30 0 32 0;
#X connect 31 0 30 1;
#X connect 33 0 30 0;
#X connect 34 0 35 0;
#X connect 35 0 29 0;
