#N canvas 357 122 364 397 10;
#N canvas 0 0 307 339 dBr 1;
#X obj 26 69 hilbert~;
#X obj 25 106 *~;
#X obj 71 105 *~;
#X obj 25 162 sqrt~;
#X obj 26 137 +~;
#X obj 24 187 log~;
#X obj 23 212 /~ 2.30259;
#X obj 22 242 *~ 20;
#X obj 25 11 inlet~;
#X obj 22 269 outlet~;
#X obj 25 42 hip~ 1;
#X connect 0 0 1 0;
#X connect 0 0 1 1;
#X connect 0 1 2 0;
#X connect 0 1 2 1;
#X connect 1 0 4 0;
#X connect 2 0 4 1;
#X connect 3 0 5 0;
#X connect 4 0 3 0;
#X connect 5 0 6 0;
#X connect 6 0 7 0;
#X connect 7 0 9 0;
#X connect 8 0 10 0;
#X connect 10 0 0 0;
#X restore 85 70 pd dBr;
#X obj 84 157 *~ 0.3;
#X obj 84 180 abs~;
#X obj 83 238 lop~ 1;
#X obj 22 16 inlet~;
#X obj 26 283 *~;
#X obj 22 333 outlet~;
#X obj 84 209 expr~ $v1>$v2;
#X obj 163 24 inlet;
#X obj 84 100 hip~ 0.5;
#X obj 84 132 lop~ 30;
#X connect 0 0 9 0;
#X connect 1 0 2 0;
#X connect 2 0 7 0;
#X connect 3 0 5 1;
#X connect 4 0 0 0;
#X connect 4 0 5 0;
#X connect 5 0 6 0;
#X connect 7 0 3 0;
#X connect 8 0 7 1;
#X connect 9 0 10 0;
#X connect 10 0 1 0;
