#N canvas 223 171 714 779 12;
#X obj 145 153 inlet;
#X obj 179 489 *~;
#X obj 347 429 line~;
#X floatatom 347 146 4 0 0 0 - - - 0;
#X obj 347 403 pack 0 200;
#X obj 347 120 r window;
#X floatatom 148 195 6 0 0 0 - - - 0;
#X obj 148 285 /;
#X obj 196 219 * 0.001;
#X obj 446 490 line~;
#X obj 446 465 pack 0 200;
#X floatatom 446 414 0 0 0 0 - - - 0;
#X obj 446 388 r delay;
#X obj 179 515 +~;
#X obj 116 541 cos~;
#X obj 116 568 *~;
#X obj 302 625 +~;
#X obj 288 431 wrap~;
#X obj 383 485 *~;
#X obj 383 537 +~;
#X obj 320 564 cos~;
#X obj 320 591 *~;
#X obj 527 40 loadbang;
#X obj 196 246 t b f;
#X floatatom 148 311 6 0 0 0 - - - 0;
#X obj 288 404 +~ 0.5;
#X obj 116 489 -~ 0.5;
#X obj 116 515 *~ 0.5;
#X obj 320 484 -~ 0.5;
#X obj 320 536 *~ 0.5;
#X obj 148 222 - 1;
#X obj 148 248 * -1;
#X text 101 189 speed;
#X text 94 203 change;
#X text 76 302 tape head;
#X obj 148 342 phasor~;
#X obj 446 441 max 1.5;
#X text 449 347 delay;
#X text 446 365 (msec);
#X obj 347 173 max 1;
#X text 76 315 rotation freq, f 9;
#X text 380 146 <= window (msec);
#X obj 301 670 outlet~;
#X msg 527 66 \; window 100 \; delay 0;
#X obj 279 41 r~ mic;
#X obj 279 74 delwrite~ del\$0 5000;
#X obj 179 541 delread4~ del\$0;
#X obj 383 566 delread4~ del\$0;
#X connect 0 0 6 0;
#X connect 1 0 13 0;
#X connect 2 0 1 1;
#X connect 2 0 18 1;
#X connect 3 0 39 0;
#X connect 4 0 2 0;
#X connect 5 0 3 0;
#X connect 6 0 30 0;
#X connect 7 0 24 0;
#X connect 8 0 23 0;
#X connect 9 0 13 1;
#X connect 9 0 19 1;
#X connect 10 0 9 0;
#X connect 11 0 36 0;
#X connect 12 0 11 0;
#X connect 13 0 46 0;
#X connect 14 0 15 0;
#X connect 15 0 16 0;
#X connect 16 0 42 0;
#X connect 17 0 18 0;
#X connect 17 0 28 0;
#X connect 18 0 19 0;
#X connect 19 0 47 0;
#X connect 20 0 21 0;
#X connect 21 0 16 1;
#X connect 22 0 43 0;
#X connect 23 0 7 0;
#X connect 23 1 7 1;
#X connect 24 0 35 0;
#X connect 25 0 17 0;
#X connect 26 0 27 0;
#X connect 27 0 14 0;
#X connect 28 0 29 0;
#X connect 29 0 20 0;
#X connect 30 0 31 0;
#X connect 31 0 7 0;
#X connect 35 0 1 0;
#X connect 35 0 26 0;
#X connect 35 0 25 0;
#X connect 36 0 10 0;
#X connect 39 0 8 0;
#X connect 39 0 4 0;
#X connect 44 0 45 0;
#X connect 46 0 15 1;
#X connect 47 0 21 1;
