#N canvas 52 52 492 821 12;
#X obj 88 66 r~ mic;
#X obj 220 246 output~;
#X obj 175 163 *~ 5;
#N canvas 150 175 450 300 freqshift 0;
#X obj 160 82 phasor~;
#X obj 160 132 cos~;
#X obj 206 130 cos~;
#X obj 44 56 inlet~;
#X obj 113 207 *~;
#X obj 45 257 outlet~;
#X obj 160 50 inlet;
#X obj 45 205 *~;
#X obj 206 110 +~ 0.25;
#X obj 44 128 hilbert~;
#X connect 0 0 1 0;
#X connect 0 0 8 0;
#X connect 1 0 7 1;
#X connect 2 0 4 1;
#X connect 3 0 9 0;
#X connect 4 0 5 0;
#X connect 6 0 0 0;
#X connect 7 0 5 0;
#X connect 8 0 2 0;
#X connect 9 0 7 0;
#X connect 9 1 4 0;
#X restore 88 109 pd freqshift;
#X obj 257 65 r~ mic;
#N canvas 150 175 450 300 freqshift 0;
#X obj 160 82 phasor~;
#X obj 160 132 cos~;
#X obj 206 130 cos~;
#X obj 44 56 inlet~;
#X obj 113 207 *~;
#X obj 45 257 outlet~;
#X obj 160 50 inlet;
#X obj 45 205 *~;
#X obj 206 110 +~ 0.25;
#X obj 44 128 hilbert~;
#X connect 0 0 1 0;
#X connect 0 0 8 0;
#X connect 1 0 7 1;
#X connect 2 0 4 1;
#X connect 3 0 9 0;
#X connect 4 0 5 0;
#X connect 6 0 0 0;
#X connect 7 0 5 0;
#X connect 8 0 2 0;
#X connect 9 0 7 0;
#X connect 9 1 4 0;
#X restore 262 109 pd freqshift;
#X obj 236 207 +~;
#X obj 329 58 * 2;
#X obj 278 188 *~ 20;
#X obj 39 135 r~ mic;
#X obj 73 216 *~ 5;
#X floatatom 99 181 5 0 0 0 - - - 0;
#X floatatom 199 119 5 0 0 0 - - - 0;
#X floatatom 336 150 5 0 0 0 - - - 0;
#X obj 155 58 * -2;
#X connect 0 0 3 0;
#X connect 2 0 6 0;
#X connect 3 0 2 0;
#X connect 4 0 5 0;
#X connect 5 0 8 0;
#X connect 6 0 1 0;
#X connect 6 0 1 1;
#X connect 7 0 5 1;
#X connect 8 0 6 1;
#X connect 9 0 10 0;
#X connect 10 0 6 0;
#X connect 11 0 10 1;
#X connect 12 0 2 1;
#X connect 13 0 8 1;
#X connect 14 0 3 1;
