#N canvas 178 332 1418 587 12;
#X obj 216 143 vradio 19 1 0 7 empty empty empty 0 -10 0 12 #ffe3c6 #000000 #000000 0;
#X obj 341 403 s silence;
#X obj 341 427 s sinusoid;
#X obj 341 451 s triangular;
#X obj 341 475 s rampup;
#X obj 341 499 s rampdown;
#X obj 341 523 s square;
#X obj 341 547 s noise;
#X obj 90 77 inlet;
#X obj 757 56 osc~;
#N canvas 0 50 450 250 (subpatch) 0;
#X array array1 500 float 1;
#A 0 0 0 0 0 0 0 0 0 0 0 0 0 0 0 0 0 0 0 0 0 0 0 0 0 0 0 0 0 0 0 0 0 0 0 0 0 0 0 0 0 0 0 0 0 0 0 0 0 0 0 0 0 0 0 0 0 0 0 0 0 0 0 0 0 0 0 0 0 0 0 0 0 0 0 0 0 0 0 0 0 0 0 0 0 0 0 0 0 0 0 0 0 0 0 0 0 0 0 0 0 0 0 0 0 0 0 0 0 0 0 0 0 0 0 0 0 0 0 0 0 0 0 0 0 0 0 0 0 0 0 0 0 0 0 0 0 0 0 0 0 0 0 0 0 0 0 0 0 0 0 0 0 0 0 0 0 0 0 0 0 0 0 0 0 0 0 0 0 0 0 0 0 0 0 0 0 0 0 0 0 0 0 0 0 0 0 0 0 0 0 0 0 0 0 0 0 0 0 0 0 0 0 0 0 0 0 0 0 0 0 0 0 0 0 0 0 0 0 0 0 0 0 0 0 0 0 0 0 0 0 0 0 0 0 0 0 0 0 0 0 0 0 0 0 0 0 0 0 0 0 0 0 0 0 0 0 0 0 0 0 0 0 0 0 0 0 0 0 0 0 0 0 0 0 0 0 0 0 0 0 0 0 0 0 0 0 0 0 0 0 0 0 0 0 0 0 0 0 0 0 0 0 0 0 0 0 0 0 0 0 0 0 0 0 0 0 0 0 0 0 0 0 0 0 0 0 0 0 0 0 0 0 0 0 0 0 0 0 0 0 0 0 0 0 0 0 0 0 0 0 0 0 0 0 0 0 0 0 0 0 0 0 0 0 0 0 0 0 0 0 0 0 0 0 0 0 0 0 0 0 0 0 0 0 0 0 0 0 0 0 0 0 0 0 0 0 0 0 0 0 0 0 0 0 0 0 0 0 0 0 0 0 0 0 0 0 0 0 0 0 0 0 0 0 0 0 0 0 0 0 0 0 0 0 0 0 0 0 0 0 0 0 0 0 0 0 0 0 0 0 0 0 0 0 0 0 0 0 0 0 0 0 0 0 0 0 0 0 0 0 0 0 0 0 0 0 0 0 0 0 0 0 0 0 0 0 0 0 0 0 0 0 0 0 0 0 0 0 0 0;
#X coords 0 1 499 -1 200 140 1 0 0;
#X restore 469 418 graph;
#X obj 75 443 bng 19 250 50 0 empty empty empty 0 -10 0 12 #fcfcfc #000000 #000000;
#X obj 75 497 bng 19 250 50 0 empty empty empty 0 -10 0 12 #fcfcfc #000000 #000000;
#X obj 893 88 noise~;
#X obj 25 263 output~;
#X obj 18 206 r~ out;
#X obj 555 334 s~ out;
#X obj 75 469 metro 200;
#X obj 893 149 *~;
#X obj 49 130 s in;
#X obj 175 376 route 0 1 2 3 4 5 6;
#X obj 172 316 t f f b;
#X obj 175 352 f -1;
#X obj 911 118 r noise;
#X obj 75 535 tabwrite~ array1;
#X obj 125 503 r~ out;
#X obj 405 43 r in;
#X obj 406 151 *~;
#X obj 426 114 r triangular;
#X obj 314 403 tgl 19 0 empty empty empty 0 -10 0 12 #fcfcfc #000000 #000000 0 1;
#X obj 314 427 tgl 19 0 empty empty empty 0 -10 0 12 #fcfcfc #000000 #000000 0 1;
#X obj 314 451 tgl 19 0 empty empty empty 0 -10 0 12 #fcfcfc #000000 #000000 0 1;
#X obj 314 475 tgl 19 0 empty empty empty 0 -10 0 12 #fcfcfc #000000 #000000 0 1;
#X obj 314 499 tgl 19 0 empty empty empty 0 -10 0 12 #fcfcfc #000000 #000000 0 1;
#X obj 314 523 tgl 19 0 empty empty empty 0 -10 0 12 #fcfcfc #000000 #000000 0 1;
#X obj 314 547 tgl 19 0 empty empty empty 0 -10 0 12 #fcfcfc #000000 #000000 0 1;
#X floatatom 41 89 5 0 0 0 - - - 0;
#N canvas 26 26 349 346 triangular 0;
#X obj 118 84 * -1;
#X obj 99 264 expr~ $v1*2-1;
#X obj 60 138 phasor~;
#X obj 60 197 clip~ 0 1;
#X obj 60 167 expr~ $v1*2-1;
#X obj 168 138 phasor~;
#X obj 168 197 clip~ 0 1;
#X obj 168 167 expr~ $v1*2-1;
#X obj 104 234 +~;
#X msg 189 54 0;
#X obj 49 27 inlet;
#X obj 99 288 outlet~;
#X obj 188 27 loadbang;
#X connect 0 0 5 0;
#X connect 1 0 11 0;
#X connect 2 0 4 0;
#X connect 3 0 8 0;
#X connect 4 0 3 0;
#X connect 5 0 7 0;
#X connect 6 0 8 1;
#X connect 7 0 6 0;
#X connect 8 0 1 0;
#X connect 9 0 2 1;
#X connect 9 0 5 1;
#X connect 10 0 2 0;
#X connect 10 0 0 0;
#X connect 12 0 9 0;
#X restore 405 77 pd triangular;
#X text 161 145 silence;
#X text 140 184 triangular;
#X text 161 204 ramp-up;
#X text 147 221 ramp-down;
#X text 168 240 square;
#X text 175 258 noise;
#X obj 757 30 r in;
#X obj 757 80 *~ 10000;
#X obj 756 105 clip~ -1 1;
#X obj 758 155 *~;
#X obj 811 131 r square;
#X text 154 165 sinusoid;
#X obj 286 41 r in;
#X obj 286 65 osc~;
#X obj 285 144 *~;
#X obj 299 105 r sinusoid;
#X obj 541 55 r in;
#X obj 542 152 *~;
#X obj 560 116 r rampup;
#X obj 649 1 r in;
#X obj 646 150 *~;
#X obj 649 53 phasor~;
#X obj 649 25 * -1;
#X obj 664 114 r rampdown;
#X obj 649 86 expr~ $v1*2-1;
#X obj 41 18 loadbang;
#X obj 17 363 outlet~;
#N canvas 78 78 659 496 rampup 0;
#X obj 58 109 inlet;
#X obj 117 414 outlet~;
#X obj 58 169 phasor~;
#X obj 164 163 phasor~;
#X obj 311 63 bng 19 250 50 0 empty empty empty 0 -10 0 12 #fcfcfc #000000 #000000;
#X msg 130 121 0;
#X obj 164 187 -~ 0.8;
#X obj 164 211 clip~ 0 1;
#X obj 252 168 phasor~;
#X obj 252 192 -~ 0.8;
#X obj 252 216 clip~ 0 1;
#X obj 345 166 phasor~;
#X obj 345 190 -~ 0.8;
#X obj 345 214 clip~ 0 1;
#X obj 307 32 loadbang;
#X obj 435 164 phasor~;
#X obj 435 188 -~ 0.8;
#X obj 435 212 clip~ 0 1;
#X msg 481 133 0.6;
#X obj 527 166 phasor~;
#X obj 527 190 -~ 0.8;
#X obj 527 214 clip~ 0 1;
#X obj 113 281 expr~ $v1-($v2+$v3+$v4+$v5+$v6);
#X msg 211 122 0;
#X msg 298 125 0.2;
#X msg 387 126 0.4;
#X msg 573 135 0.8;
#X obj 116 340 expr~ $v1/0.8*2-1;
#X connect 0 0 2 0;
#X connect 0 0 3 0;
#X connect 0 0 8 0;
#X connect 0 0 11 0;
#X connect 0 0 15 0;
#X connect 0 0 19 0;
#X connect 2 0 22 0;
#X connect 3 0 6 0;
#X connect 4 0 5 0;
#X connect 4 0 23 0;
#X connect 4 0 24 0;
#X connect 4 0 25 0;
#X connect 4 0 18 0;
#X connect 4 0 26 0;
#X connect 5 0 2 1;
#X connect 6 0 7 0;
#X connect 7 0 22 1;
#X connect 8 0 9 0;
#X connect 9 0 10 0;
#X connect 10 0 22 2;
#X connect 11 0 12 0;
#X connect 12 0 13 0;
#X connect 13 0 22 3;
#X connect 14 0 4 0;
#X connect 15 0 16 0;
#X connect 16 0 17 0;
#X connect 17 0 22 4;
#X connect 18 0 15 1;
#X connect 19 0 20 0;
#X connect 20 0 21 0;
#X connect 21 0 22 5;
#X connect 22 0 27 0;
#X connect 23 0 3 1;
#X connect 24 0 8 1;
#X connect 25 0 11 1;
#X connect 26 0 19 1;
#X connect 27 0 1 0;
#X restore 541 79 pd rampup;
#X text 601 374 Optional: Modified ramp-up to be staircase wave.;
#X msg 41 55 120;
#X obj 75 415 loadbang;
#X connect 0 0 21 0;
#X connect 8 0 19 0;
#X connect 9 0 45 0;
#X connect 11 0 17 0;
#X connect 12 0 24 0;
#X connect 13 0 18 0;
#X connect 15 0 14 0;
#X connect 15 0 14 1;
#X connect 15 0 64 0;
#X connect 17 0 12 0;
#X connect 18 0 16 0;
#X connect 20 0 29 0;
#X connect 20 1 30 0;
#X connect 20 2 31 0;
#X connect 20 3 32 0;
#X connect 20 4 33 0;
#X connect 20 5 34 0;
#X connect 20 6 35 0;
#X connect 21 0 22 1;
#X connect 21 1 22 0;
#X connect 21 2 22 0;
#X connect 22 0 20 0;
#X connect 23 0 18 1;
#X connect 25 0 24 0;
#X connect 26 0 37 0;
#X connect 27 0 16 0;
#X connect 28 0 27 1;
#X connect 29 0 1 0;
#X connect 30 0 2 0;
#X connect 31 0 3 0;
#X connect 32 0 4 0;
#X connect 33 0 5 0;
#X connect 34 0 6 0;
#X connect 35 0 7 0;
#X connect 36 0 19 0;
#X connect 37 0 27 0;
#X connect 44 0 9 0;
#X connect 45 0 46 0;
#X connect 46 0 47 0;
#X connect 47 0 16 0;
#X connect 48 0 47 1;
#X connect 50 0 51 0;
#X connect 51 0 52 0;
#X connect 52 0 16 0;
#X connect 53 0 52 1;
#X connect 54 0 65 0;
#X connect 55 0 16 0;
#X connect 56 0 55 1;
#X connect 57 0 60 0;
#X connect 58 0 16 0;
#X connect 59 0 62 0;
#X connect 60 0 59 0;
#X connect 61 0 58 1;
#X connect 62 0 58 0;
#X connect 63 0 67 0;
#X connect 65 0 55 0;
#X connect 67 0 36 0;
#X connect 68 0 11 0;
#X coords 0 -1 1 1 120 160 1 120 120;
