#N canvas 1033 322 803 533 12;
#X obj 60 129 F0s;
#X floatatom 60 102 5 0 0 0 - - - 0;
#X obj 59 336 output~;
#X msg 59 67 120;
#X obj 57 36 loadbang;
#X connect 0 0 2 0;
#X connect 0 0 2 1;
#X connect 1 0 0 0;
#X connect 3 0 1 0;
#X connect 4 0 3 0;
